# xmcd CD database file
#
# Track frame offsets:
#	150
#	14667
#	25942
#	41046
#	54586
#	67936
#	83978
#	99069
#	111495
#	132240
#	144990
#	161192
#	176641
#	187163
#	204263
#	231446
#
# Disc length: 3372 seconds
#
# Revision: 0
# Processed by: cddbd v1.5.2PL0 Copyright (c) Steve Scherf et al.
# Submitted via: ACXtractor (MTCDDB.DLL V2003.07.15)
#
DISCID=e20d2a10
DTITLE=Karen Lynn - The Singles
DYEAR=2003
DGENRE=Country
TTITLE0=I'll Just Pretend
TTITLE1=Roses in the Snow
TTITLE2=Send me the Pillow
TTITLE3=Everyone Was Right
TTITLE4=Half the Moon
TTITLE5=This Man I Love
TTITLE6=The Healing Kind
TTITLE7=This Ring
TTITLE8=The Rush
TTITLE9=I Don't Know Why
TTITLE10=Till You Loved Me
TTITLE11=The Circle is Small
TTITLE12=You're Runnibg Wild
TTITLE13=Grandma Used to Say
TTITLE14=The Days When We Were Young
TTITLE15=DATA track
EXTD=ID3G:   2 YEAR: 2003
EXTT0=
EXTT1=
EXTT2=
EXTT3=
EXTT4=
EXTT5=
EXTT6=
EXTT7=
EXTT8=
EXTT9=
EXTT10=
EXTT11=
EXTT12=
EXTT13=
EXTT14=
EXTT15=
PLAYORDER=
